<?xml version="1.0" encoding="UTF-8"?>
<svg id="Layer_1" xmlns="http://www.w3.org/2000/svg" xmlns:xlink="http://www.w3.org/1999/xlink" version="1.1" viewBox="0 0 600 229.1">
  <!-- Generator: Adobe Illustrator 30.5.1, SVG Export Plug-In . SVG Version: 2.1.4 Build 3)  -->
  <defs>
    <style>
      .st0 {
        mask: url(#mask);
      }
    </style>
    <mask id="mask" x="-45.1" y="-149.1" width="672.9" height="514" maskUnits="userSpaceOnUse">
      <image width="1024" height="1024" transform="translate(-45.1 -149.1) scale(.7 .5)" xlink:href="snf-grunge-texture.png"/>
    </mask>
  </defs>
  <g class="st0">
    <g>
      <path d="M333.5,35.9c4.8.6,9.4,2.2,13.1,5.5s6.9,10.8,4.6,17.1-3.4,7-6.3,9.7l-8.8,8,7.2,10.8-8.7,12.7c-3.4-3.4-5.5-6.8-7.9-10.5-1.9-2.9-3.6-5.6-5.9-8.2-5.6,2.5-9.3,7.3-10.5,13.2s.3,12,4.6,16.2c4.6,4.6,11.3,6.3,17.7,5.1s11.5-4.5,15.7-9.1,2.1-2,2.3-3.7c-4.4.1-8.4.6-12.6-.3l21.8-42.1,12.3-23.3h14.7s17.7.3,17.7.3l-10.3,13.4-29.2,37.1h16.4c1,3.2-6.7,8.4-9.8,11.7l-23.9,25-8.3,8.7h8.1c0,0,0,4.2,0,4.2h-3.6s0,14.5,0,14.5h-4.9s0-14.5,0-14.5h-3.7c-1,1-1.6,2.1-3.2,2.3l6.8-16.2c-13.2,4.6-27.3,4.3-36.7-5.9s-4.4-5.8-5.4-9.3l-.6.2c0,0-.2-.2,0-.3s.5-.3.5-.4l-.6-4.1c0-.6,0-.7-.1-1.2-.8-13.9,7.6-22.8,19.1-29.6-6.6-10.8-7.9-23.7,2.4-31.8s7.7-4.4,12.2-4.9h4ZM333,68.6c2.7-3.4,5-6.6,7-10.3s2.1-6.8.7-10.1c-1.2-2.8-3.9-4.3-6.9-4.8-4.8-.8-8.9,1.9-10.1,6.7s-.2,7.9,2,11.3l5.5,8.6c.4-.2,1.2-.8,1.6-1.3Z"/>
      <path d="M246.2,108.7v3.8c-.1,1.5.6,3.8-.8,5.1-1.4,1.1-4,1-5.8,1h-5.9c-2.2,0-3.4-1.2-4.1-3l-1.4-3.5-1.4-3.5-8.5-19.7-2-4.8-3.3-7.1c0-.2-.6-.6-.7-.5s-.5.4-.6.7v14c0,0,0,6.7,0,6.7v3.8s0,15.1,0,15.1c0,1.1-1.5,1.9-2.5,1.9h-5.3c0,0-5.9,0-5.9,0-.9,0-1.9-.6-1.9-1.6v-7c0,0,0-4.7,0-4.7v-16.6s0-10,0-10v-17.7c0,0-.2-20.4-.2-20.4,0-1.6,1.2-2.9,2.7-2.9h7.9c1.4,0,3.1-.2,4.4.3s1.9,2.3,2.5,3.6l3.3,7.7,3.9,9.2,7.9,18.5c.4,1,.5,1.6,1.6,2.2.4-1.5.4-2.4.4-3.8v-7.3s0-8.4,0-8.4v-5.8c-.1,0,0-14.2,0-14.2,0-1.3,1.7-2.1,2.8-2.1h10.6c1.6-.1,2.6,1.1,2.5,2.6v8.7c0,0,0,7.5,0,7.5v10.7c0,0,0,7.2,0,7.2v4.7s0,3.8,0,3.8v9.6s0,9.3,0,9.3v6.7Z"/>
      <path d="M509.4,106.4c-.2-.7-.4-1.1-.6-1.6l-4-11.4-2.9-7.4c-.3-.7-2-.6-2.8-.6-1.2,0-2.1.5-2.1,1.8v6.1c0,0,0,11.9,0,11.9v11.1c-.1,1.3-2.2,2-3.3,2h-11.5c-1.5,0-2.4-1.1-2.4-2.5v-14s0-19.2,0-19.2v-4.1s0-8.7,0-8.7v-8.5c0,0,0-13.1,0-13.1l-.4-6.7c0-1.3.4-3.3,1.7-3.7,2.5-.9,5.2-.1,7.8-.2l9.9-.3,10.6.3c1.7,0,3.3.6,4.8,1,3.7,1.1,6.6,3,9.1,5.9,5,5.6,5.4,13.7,4.8,21.2l-.7,4.3c-.7,4-2.5,7.7-5.8,10.3l-4.7,3c-.1,1.3.4,2.3.9,3.4l2.6,6.8,1.1,3,2.9,7.5,3.7,9.1,1.1,2.5c.2.5.2,1.7-.2,2.1s-1.4.9-2.1.8l-5.5-.2h-4.5c0,.1-2.5.2-2.5.2-1.6,0-1.6-1-1.9-2l-3.3-9.9ZM510.8,68.9c1.4-3.6,1.3-7.2,1.1-11s-1-5.1-3.3-6.3c-3.3-1.8-6.8-1.8-10.4-1.3-.7,1-1.1,2.1-1.1,3.3v12.2s0,6.4,0,6.4c.9.6,2.3.8,3.4.8,4-.2,8.8-.1,10.3-4Z"/>
      <path d="M100.5,120.1c-6,.4-10.7.2-16-2s-7.5-4.4-9.9-8.3-2.6-6.5-2.8-9.5l-.2-4.5c-.3-6.3,0-11.8-.1-17.9s0-2.3,0-3.5v-9.8s0-5.8,0-5.8c0-4.7.6-9.4,3.3-13.2s1.9-2.6,3.3-3.7,2.9-2.6,4.7-3.2c7.3-2.6,10-2.6,17.8-2.2s9.9,1.8,13.8,5.1,5.9,7.3,6.6,12.6l.4,3v2.8c0,0,0,8.2,0,8.2v13.1s0,13.1,0,13.1l-.2,5.5c0,2.7-.6,5-1.7,7.4-2.6,5.7-7.1,9.6-13.2,11.4s-3.7,1.2-5.8,1.3ZM88.8,99.1c.2,3.9,2.8,7,6.7,7.4s3.2-.4,4.5-.8c4-1.3,4.3-7.9,4.3-12.5v-33.5c0-1.6-.6-3.3-.9-4.8-.5-2.4-2.2-4.2-4.6-4.7s-5.7-.5-7.7,1.5-2.6,8-2.4,12.1-.1,3.5,0,5.2v10.5c0,0,.1,6.4.1,6.4v3.5c0,3.2-.1,6.3,0,9.7Z"/>
      <path d="M169.4,37.9l11.8-.2c.6,0,1.5.4,1.8.8s.5,1.5.5,2.2v10.5s0,4.9,0,4.9v4.4c0,3.5.2,6.9,0,10.5v6.1c-.1,0-.1,9-.1,9v7.3c0,0,0,3.7,0,3.7,0,3.1-.3,5.8-1.2,8.8s-.8,2.5-1.6,3.6l-2.6,3.6c-2.3,1.8-4.6,3.7-7.4,4.7-10.7,3.9-25.2,3.3-32.8-5.4s-4.6-8.3-4.7-13.2l-.2-12v-14.6c.1,0,0-4.1,0-4.1v-9.6c.1,0,.3-5.9.3-5.9-.4-4.7-.4-9.1-.3-13.7.6-2.2,5.1-1.8,8.8-1.8h3s3.3.2,3.3.2c3.3.1,2.3,4,2.3,8.4v10.1s0,4.5,0,4.5v5.2c-.1,0,0,6.7,0,6.7v5.8s0,6.1,0,6.1v4.1c0,0,0,5,0,5l.6,7.8c.1,1.3,1.5,2.7,2.4,3.6,1.6,1.7,7.2,1.9,9.5,0s2.8-4.3,2.9-6.8l.2-7v-6.4s0-3.5,0-3.5v-5.2c0,0,0-10.8,0-10.8v-15.7s-.1-9.1-.1-9.1c0-.8.3-1.9.8-2.3.7-.6,1.5-.5,2.4-.5Z"/>
      <path d="M468,50v13.4c0,0,0,6.8,0,6.8v11.3c0,0,0,12.2,0,12.2l-.3,5.4c-.3,4.4-1.7,9.5-4.7,12.9s-3.4,3.5-5.7,4.5-5.2,2.2-7.9,2.8l-3.6.3c-3,.3-8,.1-10.5-.7l-4.4-1.4c-3.6-1.2-6.3-3.7-8.7-6.5s-2-3.4-2.7-5.6l-1.3-4.7v-4c0,0,0-4.4,0-4.4v-14.3c0,0,0-4.1,0-4.1v-12s-.1-22.1-.1-22.1c0-1.2.5-2.3,1.9-2.4l13.2-.2c1.5,0,2.3,1.2,2.3,2.5v13.1c-.1,0,0,7.9,0,7.9v9c-.1,0-.1,6.2-.1,6.2l.3,16.3c0,2.4-.4,4.7,0,7s1.8,5.2,4.3,6.2,4.6.5,6.7,0,4.5-3.2,4.5-6l.4-5v-21.9c0,0-.1-4.1-.1-4.1v-10.5c.1,0,0-6.4,0-6.4v-5.8c0,0-.1-5.8-.1-5.8,0-1.6.9-2.7,2.5-2.8h6.2c0-.1,4.6-.1,4.6-.1,1.1,0,3-.1,3.3,1.5.6,3.7.2,7.4.3,11.3Z"/>
      <path d="M297.1,115.4c-6.2,3.4-12.4,3.6-19.3,3.6h-2.1s-6.1.1-6.1.1l-8.6-.3c-1.4,0-2.3-1.2-2.3-2.6v-13.3c0,0,0-2.7,0-2.7v-10.7c0,0,0-13.4,0-13.4v-14.1c0,0-.1-20.7-.1-20.7,0-1,.3-2.2.8-2.7.8-.7,1.8-.7,2.9-.7h17.5c7.9,0,13.4.4,20,5.4s5.4,6.4,6.3,10.6l1.2,5.8v4.7c.1,0,.3,9.7.3,9.7-8.1,6.2-14.2,14.2-14.5,24.7s.3.9,0,1.3c-.3,5.5,1.1,10.7,4.1,15.5ZM283.2,105.3c2-.1,3.6-1.4,5.1-2.4s1.1-1,1.4-1.9c.6-1.7.9-3.3,1-5.2l.2-5v-10.5s0-17.8,0-17.8c0-2.6-.2-5.3-1.5-7.6s-4-3.2-6.3-3.2l-7-.2-.3,2.9v9s0,19.5,0,19.5v8.1c-.1,0,0,6.5,0,6.5v6c0,.4,0,1.1.2,1.4s1,.6,1.4.6l5.7-.3Z"/>
      <path d="M56,113.3c-6.2,6.6-15.5,6.9-24.2,5.7s-5.2-1.2-7.7-2.6-2.6-1.4-3.6-2.5-3-2.9-4-4.7c-2.3-4-2.2-9.9-2.6-14.5.7-1.9,1.9-2.4,3.7-2.5,4.7-.2,13-1.3,12.5,2.8s0,4.6.7,6.8,3.7,4.7,6.9,4.8,4.4-.4,5.8-1.9c2.9-3.1,2.7-7.7,0-11.1s-2.4-2.8-3.9-4l-7-5.8c-4.9-4.1-9.3-7.4-13.5-12.4s-4.4-10.2-4.3-15.7,1.1-6.9,3.1-10,2.4-3.6,4.3-5.1,5.5-3,8.8-3.5c7.2-1.1,13.1-.6,20,2.3s5.7,4,7.3,6.9,2.6,9.7,2.2,14-1.8,2.1-3.1,2.1c-3.7.1-6.8.8-10.1.7s-2.1-2-2.3-3.2l-.5-3.8c-.6-4.1-3.9-6.4-7.8-6.4s-5.3,1.7-5.7,4.8-.6,4,.3,5.7c1.3,2.7,3.3,4.8,5.6,6.7l9.6,8.2c2.6,2.2,5.4,4,7.8,6.5s3.4,4.1,4.2,5.6l1.7,3.4c.8,1.7,1.2,3.9,1.5,5.8.4,3.5-.2,6.9-1.1,10.2s-2.5,4.9-4.4,6.9Z"/>
      <path d="M569.2,81.3c-.8,2-1.5,3.8-1.4,5.8v2.9s0,15.7,0,15.7v10c0,.6-.3,1.7-.6,2.1s-1.3.6-2,.8l-12.6-.2-1.2-.5c-.3-.1,0-1.1-.1-1.5-.2-1.1-.6-2.7-.5-3.9l.2-14.9v-7.6c.2-1.8.2-3.6-.3-5.3l-.9-3-3.8-8.7-1.9-4.9-2.6-6.1-3-7.5c-.4-.9-.6-1.8-.7-2.7-.7-1.1-1.3-2.4-1.9-3.8l-2.3-5.4-1.1-3.1c-.1-.4,0-1.3.1-1.6s1.1-.7,1.6-.7h10.1c1.1,0,3.1,0,4,.7,1.6,1.3,1.9,3.6,2.4,5.4l2.5,6.6,1.5,4.6,2.8,7.4,1,2.7c0,.2.5.6.7.7s.8-.4.9-.6l3-7.7,2.5-7.2,3.8-10.1c.8-2.1,3.1-2.4,4.8-2.4h3.6s5.9.1,5.9.1c.7,0,2.1,0,2.4.6.7,1.7-.2,3.1-.8,4.5l-2.4,5.8-2.8,6.9-1.3,3.1-2.5,5.9-1.4,3.6-5.7,13.7Z"/>
      <path d="M389.8,113l.2,2.4c.1,1.5-.8,2.8-2.5,2.9h-3.5c0,0-9.3,0-9.3,0-1,0-2-1.2-2-2.2v-7.8s0-6.8,0-6.8l6.6-5.8c2.9-2.5,6-6.1,4.4-9s-1.7-1.8-2.9-1.8h-8.1c-.2-.9-.3-2.1-.2-2.9l17.3-22,.2,9.7,13.7-.2c1.6,0,3.1,1,3.2,2.7l.3,8.6c0,.8-.6,2.2-1.4,2.3-2.3.4-4.4.4-6.7.3l-7.5-.4c-.5,0-1.5,0-1.8.5v9.6s.2,14.2.2,14.2l-.2,5.6Z"/>
      <polygon points="572.6 199.9 572.5 175.9 568 199.9 561.7 199.9 557.2 175.9 557.1 199.9 548.9 199.9 548.9 166.8 561.3 166.8 564.8 186.3 568.3 166.8 580.7 166.8 580.7 199.9 572.6 199.9"/>
      <polygon points="214.7 199.9 205.2 199.9 199.4 179.7 199.4 199.9 191.3 199.9 191.3 166.8 200.9 166.8 206.5 186.9 206.6 166.8 214.7 166.8 214.7 199.9"/>
      <polygon points="128.1 199.9 118.6 199.9 113 180.2 112.7 199.9 104.7 199.9 104.7 166.8 114.3 166.8 119.8 186.6 120 166.8 128.1 166.8 128.1 199.9"/>
      <polygon points="452.7 199.9 443.2 199.9 437.5 180 437.4 199.9 429.3 199.9 429.3 166.8 439 166.8 444.6 186.9 444.6 166.8 452.7 166.8 452.7 199.9"/>
      <path d="M327.5,199.9h-9.6c-1.5-4.4.2-11.2-1.8-12.7s-2.7-.6-4-.4v13.1s-8.7,0-8.7,0v-33.1s14.9,0,14.9,0c2.9,0,5.5,1.6,6.8,4,1.9,5.2,1.1,11.5-4.4,12.6,2.8.5,4.5,2.1,4.9,4.8l.2,7.8c0,1.5.4,2.4,1.6,3.8ZM316.4,179.9c1.5-1.5,1.6-4.6.1-6.1s-2.9-.8-4.3-.7v7.6c1.4.2,3,.4,4.1-.8Z"/>
      <path d="M408,196.6c0,1.3.6,2.1,1.5,3.3h-9.6c-1.4-4.8.3-11.7-1.9-12.8s-2.6-.4-3.8-.3v13.2s-8.7,0-8.7,0v-33.2s14.8,0,14.8,0c3,0,5.5,1.5,6.9,4,2,5.2,1,11.7-4.4,12.6,1.3.5,2.7.8,3.5,1.7s1.5,3,1.5,4.5v6.9ZM399.5,176.1c0-1.7-1-3-2.7-3h-2.6c0,0,0,7.6,0,7.6,1,0,2.4.1,3.3-.2,1.8-.7,2.1-2.5,2-4.3Z"/>
      <path d="M244.1,189.4c0,2.2-.7,4.1-1.5,5.9-1.5,2.6-4,4.5-7.2,4.5h-14.2c0,0,0-33.1,0-33.1h13.7c3.8,0,6.8,2.3,8.1,5.7.5,1.6,1,3.2,1,4.9v12.1ZM235.1,176.1c0-1.1-.7-2.6-1.8-2.9s-2.2-.2-3.4-.2v20.6c1.3,0,2.7.2,3.9-.5,2.2-1.2,1.6-12.4,1.3-17Z"/>
      <path d="M157.4,176.7c.5,6,.9,15.6-2.3,19.9-1.7,2-3.9,3.3-6.7,3.3h-13.9s0-33.1,0-33.1h13.9c3.4,0,6.2,1.9,7.6,4.8.6,1.6,1.2,3.3,1.3,5.1ZM148.6,176.9c0-1-.5-2.8-1.3-3.3-1.2-.7-2.7-.5-4-.4v20.5c1.3,0,2.5,0,3.7-.3,2.4-.9,1.9-11.8,1.6-16.5Z"/>
      <path d="M538.5,199c-4.1,2.1-9,2-13.1.2s-5.5-10.5-5.5-16.2.7-14.7,7.6-16.4,5.6-.7,8.3,0c6.9,1.5,7.8,9.4,7.8,16.1s-.3,13.8-5.2,16.3ZM534.3,192.1c.6-5.9.5-11.7,0-17.5s-1.2-2.6-2.5-2.6-2.4,1-2.5,2.6c-.5,5.8-.6,11.8,0,17.6s1.2,2.5,2.5,2.5,2.3-.9,2.5-2.6Z"/>
      <path d="M297.4,189.3c-.2,5.7-2,10.1-7.6,10.9s-4.8.4-7.2,0c-5.6-.8-7.4-5-7.6-10.5v-22.9s8.7,0,8.7,0v25.2c.2,1.7,1.1,2.7,2.6,2.7s2.4-1,2.5-2.7v-25.2s8.7,0,8.7,0v22.5Z"/>
      <path d="M98.5,189.7c-.3,5.5-2.1,9.6-7.5,10.5s-5,.4-7.5,0c-5.5-.9-7.2-5-7.5-10.4v-23s8.6,0,8.6,0v25.2c0,1.6,1.2,2.7,2.5,2.8s2.7-1.1,2.7-2.8v-25.2s8.7,0,8.7,0v22.9Z"/>
      <path d="M65.7,198.9c-4.2,2.2-9.4,2.1-13.4,0-6.3-3.2-5.8-18.3-4.2-25.3s2.8-5.8,5.8-6.8,6.8-1.1,10.1,0c3,1,5,3.6,5.8,6.8,1.6,6.9,2.2,22-4.1,25.3ZM61.5,192c.5-5.9.6-11.8,0-17.5-.2-1.6-1.3-2.5-2.6-2.5s-2.2,1-2.4,2.5c-.6,5.8-.6,11.8,0,17.6s1.3,2.7,2.7,2.6,2.2-1.1,2.4-2.7Z"/>
      <path d="M177.3,194.2h-6.8s-.9,5.8-.9,5.8h-9.1s7.9-33.1,7.9-33.1h10.9s8.1,33.1,8.1,33.1h-9.3s-.8-5.8-.8-5.8ZM176.2,187.5l-2.4-13.6-2.4,13.6h4.8Z"/>
      <path d="M42.1,194c-1.7,6.8-11.3,7.5-17.5,5.6s-5.2-5.3-5-9.5h8.4c0,1.1,0,2.3.5,3.2s1.8,1.5,2.9,1.4,2-1.1,2.2-2.4c.3-1.8-.4-3.5-2.1-4.3l-5.2-2.4c-5.7-2.6-7.3-7.3-5.6-13.3s9.5-7.3,15.4-5.6c4.3,1.2,5.6,5,5.7,9.5h-8.1c0-1.3-.1-2.7-.9-3.6s-2.7-.9-3.5,0c-1.5,1.8-.9,4.5,1.3,5.4l6,2.7c5.4,2.5,7.1,7.1,5.6,13Z"/>
      <path d="M502.1,192.8c.2,1.4,1.2,1.9,2.3,1.9s2-.7,2.1-1.9l.5-6.2h8.3c0,2.6,0,5.2-.7,7.6-1.9,6-7.7,6.8-13.6,6-8.2-1-8.5-9.3-8.5-17s.4-14.3,6.4-16.3,6.3-1.1,9.4-.4,5.9,3.5,6.5,7l.3,5.2h-8.4s-.2-4.7-.2-4.7c0-1.1-1-1.9-1.9-2-2.1-.2-3,2.1-3,4.5v12.9s.5,3.4.5,3.4Z"/>
      <path d="M373,187l-6.5.4v12.6s-8.7,0-8.7,0v-33.2s14,0,14,0c3.7,0,6.7,2.4,7.9,5.8,1.8,6.3,0,13.1-6.7,14.3ZM370.9,179.6c.9-1.7.8-4.1-.3-5.5s-2.6-1.1-4-.9v7.8c1.6.3,3.5.3,4.4-1.4Z"/>
      <polygon points="269.3 179.5 269.4 186.3 259.1 186.3 259 199.9 250.4 199.9 250.4 166.8 270.1 166.8 270.1 173.9 259.1 173.9 259.1 179.5 269.3 179.5"/>
      <polygon points="354.3 166.8 345.9 186.9 345.9 199.9 337.2 199.9 337.2 186.9 328.9 166.8 338.3 166.8 341.5 178.2 344.8 166.8 354.3 166.8"/>
      <polygon points="472.3 199.9 463.6 199.9 463.6 174.2 457.3 174.1 457.2 166.8 478.8 166.8 478.8 174.1 472.3 174.2 472.3 199.9"/>
      <polygon points="423.1 199.9 414.4 199.9 414.4 166.8 423.1 166.8 423.1 199.9"/>
      <polygon points="309.5 151.7 304.1 151.7 300.9 140.6 300.8 151.7 296.3 151.7 296.2 133.1 301.7 133 304.8 144 304.9 133 309.5 133 309.5 151.7"/>
      <polygon points="270.9 151.7 265.5 151.8 262.4 140.9 262.3 151.7 257.7 151.7 257.7 133.1 263.1 133 266.3 144 266.3 133 270.9 133.1 270.9 151.7"/>
      <polygon points="477.8 151.7 472.5 151.8 469.3 140.9 469.2 151.7 464.6 151.7 464.6 133.1 470 133 473.2 144 473.2 133 477.8 133.1 477.8 151.7"/>
      <path d="M245.7,149.7c0,.6.4,1.4.8,2h-5.4s-.3-5.5-.3-5.5c0-.6-.2-1.6-.7-1.8s-1.6-.2-2.1,0v7.3s-4.9,0-4.9,0v-18.7s8.2,0,8.2,0c1.8,0,3.3.9,4.1,2.4.9,3,.6,5.8-2.2,7,1.3.4,2.4,1.4,2.4,2.7v4.5ZM240.3,136.9c-.5-.3-1.5-.3-2.3-.3v4.3c.6,0,1.7,0,2.2-.3,1.1-.6,1-3.3.1-3.7Z"/>
      <path d="M178.3,151.7h-5.2s-.4-5.5-.4-5.5c0-.5-.1-1.4-.5-1.7s-1.4-.3-2.2-.3v7.4s-4.9,0-4.9,0v-18.7s8.3,0,8.3,0c3,0,4.8,2.5,4.5,5.3s-.7,3.4-2.7,4c1.4.5,2.4,1.2,2.4,2.5l.2,4.2c0,.7.2,1.3.6,2.5ZM172.2,136.9c-.5-.3-1.8-.4-2.3-.2v4.3c.9,0,1.8-.1,2.2-.4,1-.5,1.1-3.1.1-3.7Z"/>
      <path d="M415.1,147.3c-.6,2.7-2.5,4.4-5.1,4.4h-7.6s0-18.7,0-18.7h7.6c2.7,0,4.5,1.8,5.1,4.4.4,3.2.4,6.5,0,9.8ZM410.2,146.3v-7.9c0-.6-.4-1.5-.9-1.7s-1.7-.2-2.1,0v11.1c.3.4,1.4.3,2,.1s1-1.1,1-1.7Z"/>
      <polygon points="362.5 151.7 357.6 151.7 357.6 144.1 354.7 144 354.6 151.7 349.8 151.7 349.8 133.1 354.6 133 354.7 139.9 357.6 139.9 357.6 133.1 362.5 133 362.5 151.7"/>
      <path d="M572.3,151.7h-5.5c0,0-2.8-6.3-2.8-6.3-.4.3-1,1.2-1,1.7v4.6s-4.9,0-4.9,0v-18.7s4.9,0,4.9,0v7c0,0,3.6-7,3.6-7h5.2s-4.6,8.1-4.6,8.1l5.2,10.5Z"/>
      <path d="M428.7,151.1c-2.4,1.3-5.3,1.2-7.6,0-3.4-1.7-3.3-9.8-2.3-14.2s2.1-3.9,4.4-4.2c3.7-.5,6.9.4,7.8,3.9s1.2,12.6-2.2,14.4ZM426.3,137.3c0-.8-.9-1.4-1.5-1.3s-1.3.8-1.3,1.3v10c0,.8.8,1.5,1.5,1.4,2-.1,1.6-7.6,1.3-11.5Z"/>
      <path d="M43.4,151.8c-3.9.6-7.3-.2-8.2-4.1s-.8-7.3,0-10.8,5.5-5,9.1-3.7,2.9,2.3,3.2,4.1c.7,3.5.7,7.2,0,10.6s-1.9,3.6-4,3.9ZM42.8,137.4c0-.7-.9-1.4-1.5-1.4s-1.3.8-1.4,1.5c-.2,3.4-.2,6.5,0,9.9s.9,1.4,1.6,1.4c1.9-.2,1.5-7.5,1.2-11.4Z"/>
      <path d="M539.3,133v13.8c0,1.6-.9,3.6-2.4,4.3-2.3,1.1-5.3,1.2-7.7.1s-2.6-2.9-2.6-4.8v-13.5c0,0,4.9,0,4.9,0v14.3c0,.8.8,1.5,1.5,1.4s1.4-.8,1.4-1.6v-14.1s4.9,0,4.9,0Z"/>
      <path d="M319.4,144.8v-3.2s6.3,0,6.3,0v10.2s-3.2,0-3.2,0l-.3-1.3c-1.1,1.4-2.5,1.5-4.1,1.6-2.4,0-4.5-1.3-4.9-3.9s-.5-6.9,0-10.3,3.1-5.3,6.4-5.2,3.5.4,4.6,1.6,1.6,3,1.5,4.7h-4.6s-.5-2.5-.5-2.5c0-.4-1.3-.6-1.7-.4-1.5.8-1.1,7.7-.8,11.3s.5,1.1.8,1.2,1.6,0,1.7-.5c.3-.9.5-2.3.5-3.3h-1.8Z"/>
      <path d="M374.2,148.5h-3.8s-.5,3.3-.5,3.3h-5.1s4.5-18.6,4.5-18.6h6.2s4.6,18.7,4.6,18.7h-5.2s-.5-3.3-.5-3.3ZM373.7,144.7l-1.4-7.3-1.3,7.4,2.7-.2Z"/>
      <path d="M111.3,148.5h-3.8s-.5,3.3-.5,3.3h-5.1s4.5-18.7,4.5-18.7h6.2c0,0,4.6,18.6,4.6,18.6h-5.2c0,0-.5-3.2-.5-3.2ZM110.8,144.7l-1.3-7-1.4,7.2h2.7Z"/>
      <path d="M157.2,148.4h-3.8s-.5,3.3-.5,3.3h-5.1s4.5-18.7,4.5-18.7h6.1s4.6,18.6,4.6,18.6h-5.2c0,0-.5-3.2-.5-3.2ZM156.6,144.7l-1.3-7.2-1.4,7.4,2.7-.2Z"/>
      <path d="M74.6,148.4h-3.8s-.5,3.3-.5,3.3h-5.2s4.5-18.7,4.5-18.7h6.2s4.5,18.6,4.5,18.6h-5.2c0,0-.5-3.2-.5-3.2ZM74.1,144.8l-1.3-7.4-1.4,7.5h2.7Z"/>
      <path d="M523.7,146.9c-.2,2.3-1.3,4.2-3.6,4.7s-4.5.6-6.5-.1-3.1-3.2-2.7-5.4h4.7c0,.9.2,1.8.5,2.2s1.5.4,2,.1.9-1.5.5-2.2c-.6-1.2-2.2-1.9-3.4-2.3-2.8-.9-4.4-3.2-4-6.1s.9-3.7,2.8-4.5,5.1-1,7.2.2,2.3,3.2,2.1,4.9h-4.5c0-.9-.2-2-.7-2.3-.8-.4-1.8,0-2,.6s-.1,2,.6,2.4l3.7,1.8c2.4,1.1,3.6,3.2,3.4,5.9Z"/>
      <path d="M458,151.6c-2.3.6-4.9.7-7-.2s-2.6-3-2.4-5.2h4.7c.1.9.2,1.5.4,2s1.5.7,2,.3.8-1.3.7-1.8-.6-1.4-1.1-1.7l-3.6-1.7c-2.2-1-3-3.3-2.9-5.6s1.7-4.6,4.4-5,4-.2,5.7.7,2.2,2.9,2.1,4.9h-4.5c0-.9-.2-1.9-.7-2.2-.8-.5-1.8,0-2.1.8-.7,2.1,1.9,3,4.2,4s3.9,3.3,3.6,6-1.2,4-3.5,4.6Z"/>
      <polygon points="192.2 144 186.4 144 186.4 147.7 192.8 147.7 192.8 151.7 181.5 151.7 181.5 133 192.6 133 192.6 137 186.4 137 186.4 140.2 192.2 140.2 192.2 144"/>
      <path d="M58.4,148.1l.4-3.9h4.7c.2,3.2-.5,6.6-3.5,7.4s-8.1.2-8.9-3.7-.7-7.3,0-10.9,2.5-4.2,5.1-4.3,4.1,0,5.6,1.4,1.7,3.4,1.5,5.7h-4.6c0-.9-.1-2.5-.4-3.3s-1.2-.6-1.5-.4-.9.9-1,1.4c-.2,3.5-.6,9.8.7,11.2s1.7,0,1.8-.5Z"/>
      <path d="M550,148.1l.4-3.9h4.6c.2,2.3,0,4.8-1.7,6.4s-3.9,1.4-5.9,1.3-4.2-1.5-4.7-3.9c-.7-3.6-.7-7.5,0-11.1s2.5-4,4.9-4.2,4.2,0,5.8,1.4,1.6,3.5,1.5,5.6h-4.7s-.1-2.6-.1-2.6c0-.5-.8-1.2-1.3-1.2s-1.2.7-1.3,1.3c-.3,3.6-.7,10.3.8,11.4s1.7,0,1.7-.5Z"/>
      <path d="M413.9,49.3c0,1.1-1.4,1.9-2.5,1.9l-14.2-.5,7.9-10.2,2-3.3h5.3c0,0,1.7,2.3,1.7,2.3l-.2,9.7Z"/>
      <path d="M227.3,144c-1.5.7-3.2.6-4.9.6v7.1s-4.9,0-4.9,0v-18.7s7.5,0,7.5,0c3.1,0,5.2,2.3,5.2,5.4.2,2.2-.5,4.6-2.9,5.6ZM224.3,136.8c-.5-.2-1.3-.2-1.9-.3v4.3c.3.2,1.5.2,2,0,1.1-.6,1-3.6,0-4Z"/>
      <polygon points="445.4 144 439.6 144 439.6 147.7 446 147.7 446 151.7 434.7 151.7 434.7 133 445.8 133 445.8 137 439.6 137 439.6 140.2 445.4 140.2 445.4 144"/>
      <path d="M130.1,143.2c-1.8,1.6-4.1,1.4-6.2,1.4v7.1s-4.9,0-4.9,0v-18.7s7.6,0,7.6,0c2.8,0,4.8,2,5.1,4.7s0,4-1.5,5.4ZM125.9,136.9c-.5-.3-1.6-.4-2-.1v4.1c.3.3,1.5.2,2-.1,1-.7,1-3.3,0-3.9Z"/>
      <path d="M145.4,143.3c-1.7,1.4-3.8,1.4-6,1.2v7.1s-4.9,0-4.9,0v-18.7s7.6,0,7.6,0c2.9,0,5,2.2,5,5,.2,1.9,0,3.9-1.7,5.2ZM141.4,136.9c-.5-.3-1.7-.4-2-.1v4.1c.3.3,1.5.2,2,0,1-.7,1-3.2,0-3.9Z"/>
      <polygon points="281.9 151.7 277 151.7 277 137.2 273.4 137.2 273.4 133 285.6 133 285.6 137.2 281.9 137.2 281.9 151.7"/>
      <polygon points="497 151.7 492.1 151.7 492.1 137.2 488.5 137.2 488.5 133 500.7 133 500.7 137.2 497 137.2 497 151.7"/>
      <polygon points="388 151.7 383.1 151.7 383.1 137.2 379.5 137.2 379.6 133 391.7 133 391.7 137.2 388 137.2 388 151.7"/>
      <polygon points="32.6 147.7 32.6 151.7 21.7 151.7 21.7 133 26.6 133.1 26.6 147.7 32.6 147.7"/>
      <polygon points="206.8 147.7 206.8 151.7 195.9 151.7 195.9 133 200.8 133.1 200.8 147.7 206.8 147.7"/>
      <polygon points="93.4 147.7 93.4 151.7 82.5 151.7 82.5 133.1 87.4 133 87.4 147.7 93.4 147.7"/>
      <polygon points="254.2 151.7 249.3 151.7 249.3 133.1 254.2 133.1 254.2 151.7"/>
      <polygon points="292.8 151.7 287.9 151.7 287.8 133.1 292.7 133 292.8 151.7"/>
      <polygon points="486.9 199.9 479.1 199.9 479 190.7 486.8 190.7 486.9 199.9"/>
      <path d="M481.6,142.8v-2.3c1.5-.2,1.8-1.5,1.6-2.5h-1.6s0-5,0-5h4.5s0,5.9,0,5.9c0,2.3-1.7,4-4.3,3.8Z"/>
      <polygon points="578.6 151.7 574.2 151.7 574.1 146.6 578.6 146.5 578.6 151.7"/>
    </g>
  </g>
</svg>