<?xml version="1.0" encoding="UTF-8"?>
<svg id="Layer_1" data-name="Layer 1" xmlns="http://www.w3.org/2000/svg" viewBox="0 0 345.91 229.06">
  <defs>
    <style>
      .cls-1 {
        fill: none;
      }
    </style>
  </defs>
  <path d="M226.57,140.16l.21,2.44c.13,1.53-.75,2.84-2.54,2.89l-3.52.09-9.25-.11c-1.04-.01-1.95-1.19-1.95-2.15v-7.75s-.02-6.8-.02-6.8l6.56-5.83c2.86-2.54,5.98-6.1,4.44-8.96-.44-.81-1.69-1.76-2.88-1.78l-8.08-.15c-.19-.74-.34-1.92-.17-2.73l17.33-21.99.21,9.68,13.74-.24c1.62-.03,3.12.98,3.17,2.7l.28,8.64c.03.79-.64,2.2-1.43,2.34-2.31.4-4.4.36-6.69.25l-7.51-.35c-.51-.02-1.52.05-1.82.48l.02,9.55.14,14.16-.23,5.62Z"/>
  <path d="M250.69,76.51c-.02,1.09-1.45,1.92-2.49,1.89l-14.16-.45,7.87-10.23,1.99-3.3,5.32.09,1.68,2.26-.22,9.75Z"/>
  <g>
    <g>
      <path class="cls-1" d="M168.1,97.03c.44-.24,1.2-.75,1.64-1.29,2.73-3.36,5.04-6.63,7.04-10.32,1.72-3.16,2.14-6.81.7-10.1-1.23-2.82-3.9-4.33-6.85-4.82-4.79-.79-8.92,1.89-10.09,6.66-.94,3.84-.16,7.91,2.04,11.32l5.52,8.55Z"/>
      <path d="M241.13,64.33l-17.7-.22-14.66-.04-12.25,23.33-21.77,42.12c4.22.92,8.23.47,12.6.34-.29,1.7-1.33,2.63-2.35,3.74-4.23,4.59-9.46,7.89-15.68,9.09-6.4,1.24-13.05-.5-17.68-5.11-4.28-4.26-5.77-10.35-4.56-16.21,1.21-5.86,4.86-10.68,10.47-13.17,2.3,2.58,4.08,5.33,5.93,8.2,2.34,3.66,4.51,7.05,7.87,10.45l8.73-12.75-7.15-10.85,8.75-7.96c2.93-2.67,4.97-6.03,6.3-9.7,2.29-6.32.4-12.73-4.61-17.1-3.72-3.24-8.27-4.86-13.1-5.46h-4.01c-4.48.53-8.62,2.07-12.23,4.9-10.33,8.1-9,21.01-2.44,31.8-30.46,17.25-15.31,42.07-12.79,44.81,9.45,10.29,23.52,10.57,36.72,5.95l-6.58,15.63,10.43-9.51,4.93-5.11,23.9-25.02c3.09-3.24,10.88-8.45,9.83-11.62l-16.39-.04,29.23-37.11,10.26-13.39ZM160.53,77.16c1.16-4.76,5.3-7.45,10.09-6.66,2.95.49,5.62,1.99,6.85,4.82,1.44,3.3,1.02,6.94-.7,10.1-2,3.69-4.31,6.96-7.04,10.32-.44.54-1.2,1.05-1.64,1.29l-5.52-8.55c-2.2-3.41-2.98-7.48-2.04-11.32Z"/>
    </g>
    <path d="M129.95,121.63c.86-4.67,3-8.96,6.36-12.83-.26-.3-.52-.57-.74-.8-2.47-2.43-5.25-4.28-7.87-6.49l-9.69-8.2c-2.27-1.92-4.3-4.04-5.62-6.72-.84-1.7-.5-3.91-.29-5.69.37-3.11,2.76-4.8,5.72-4.85,3.97-.06,7.3,2.33,7.86,6.4l.53,3.83c.17,1.21.55,3.17,2.3,3.26,3.26.17,6.39-.56,10.11-.67,1.25-.04,2.96-.7,3.08-2.13.39-4.32-.18-10.39-2.24-14.05-1.62-2.89-4.25-5.61-7.32-6.91-6.88-2.92-12.8-3.41-20.07-2.29-3.32.51-6.15,1.57-8.82,3.54-1.92,1.42-3.09,3.08-4.33,5.09-1.95,3.15-3,6.24-3.08,10.05-.12,5.57.61,11.32,4.33,15.8,4.16,5.02,8.58,8.39,13.55,12.5l7.07,5.84c1.48,1.22,2.74,2.49,3.93,3.99,2.77,3.5,3.02,8.12.06,11.2-1.49,1.55-3.64,1.98-5.86,1.91-3.21-.09-5.93-1.79-6.93-4.85-.73-2.25-1.05-4.5-.74-6.88.53-4.07-7.87-2.97-12.57-2.79-1.75.07-2.98.62-3.7,2.5.43,4.64.35,10.53,2.61,14.55,1.06,1.88,2.58,3.28,4.05,4.75,1.1,1.1,2.33,1.76,3.66,2.51,2.48,1.39,4.88,2.24,7.71,2.64,7.44,1.05,15.19.92,21.2-3.1-2.84-4.96-5.81-12.78-4.27-21.1Z"/>
  </g>
</svg>