<?xml version="1.0" encoding="UTF-8"?>
<svg id="Layer_1" data-name="Layer 1" xmlns="http://www.w3.org/2000/svg" viewBox="0 0 345.91 229.06">
  <defs>
    <style>
      .cls-1 {
        fill: #fff;
      }
    </style>
  </defs>
  <rect width="345.91" height="229.06"/>
  <path class="cls-1" d="M227.5,64.27l-17.7-.22-14.66-.04-12.25,23.33-21.77,42.12c4.22.92,8.23.47,12.6.34-.29,1.7-1.33,2.63-2.35,3.74-4.23,4.59-9.46,7.89-15.68,9.09-6.4,1.24-13.05-.5-17.68-5.11-4.28-4.26-5.77-10.35-4.56-16.21,1.21-5.86,4.86-10.68,10.47-13.17,2.3,2.58,4.08,5.33,5.93,8.2,2.34,3.66,4.51,7.05,7.87,10.45l8.73-12.75-7.15-10.85,8.75-7.96c2.93-2.67,4.97-6.03,6.3-9.7,2.29-6.32.4-12.73-4.61-17.1-3.72-3.24-8.27-4.86-13.1-5.46h-4.01c-4.48.53-8.62,2.07-12.23,4.9-10.33,8.1-9,21.01-2.44,31.8-27.04,10.87-18.18,35.52-18.18,35.52,1,3.51,2.87,6.55,5.38,9.29,9.45,10.29,23.52,10.57,36.72,5.95l-6.58,15.63s50.14-48.09,49.09-51.27l-16.39-.04,29.23-37.11,10.26-13.39ZM146.91,77.11c1.16-4.76,5.3-7.45,10.09-6.66,2.95.49,5.62,1.99,6.85,4.82,1.44,3.3,1.02,6.94-.7,10.1-2,3.69-4.31,6.96-7.04,10.32-.44.54-1.2,1.05-1.64,1.29l-5.52-8.55c-2.2-3.41-2.98-7.48-2.04-11.32Z"/>
</svg>