<?xml version="1.0" encoding="UTF-8"?>
<svg id="Layer_1" data-name="Layer 1" xmlns="http://www.w3.org/2000/svg" viewBox="0 0 600 229.06">
  <defs>
    <style>
      .cls-1 {
        fill: #fff;
      }
    </style>
  </defs>
  <rect width="600" height="229.06"/>
  <path class="cls-1" d="M333.5,35.88c4.83.6,9.39,2.22,13.1,5.46,5.01,4.37,6.89,10.78,4.61,17.1-1.33,3.67-3.37,7.03-6.3,9.7l-8.75,7.96,7.15,10.85-8.73,12.75c-3.35-3.41-5.52-6.79-7.87-10.45-1.85-2.87-3.64-5.62-5.93-8.2-5.61,2.49-9.26,7.3-10.47,13.17s.28,11.95,4.56,16.21c4.63,4.6,11.28,6.34,17.68,5.11s11.45-4.5,15.68-9.09c1.02-1.11,2.06-2.04,2.35-3.74-4.37.13-8.38.58-12.6-.34l21.77-42.12,12.25-23.33,14.66.04,17.7.22-10.26,13.39-29.23,37.11,16.39.04c1.05,3.17-6.74,8.38-9.83,11.62l-23.9,25.02-8.34,8.66,8.08.07v4.14s-3.61.02-3.61.02v14.49s-4.88.03-4.88.03v-14.53s-3.69.04-3.69.04c-1.02,1-1.58,2.09-3.17,2.31l6.83-16.22c-13.2,4.62-27.26,4.34-36.72-5.95-2.52-2.74-4.38-5.79-5.38-9.29l-.65.17c-.09.02-.16-.24-.09-.3s.5-.35.48-.44l-.56-4.14c-.08-.58.06-.72-.11-1.2-.82-13.92,7.61-22.78,19.1-29.61-6.56-10.8-7.89-23.7,2.44-31.8,3.61-2.83,7.74-4.37,12.23-4.9h4.01ZM332.96,68.58c2.73-3.36,5.04-6.63,7.04-10.32,1.72-3.16,2.14-6.81.7-10.1-1.23-2.82-3.9-4.33-6.85-4.82-4.79-.79-8.92,1.89-10.09,6.66-.94,3.84-.16,7.91,2.04,11.32l5.52,8.55c.44-.24,1.2-.75,1.64-1.29Z"/>
  <path class="cls-1" d="M246.21,108.65l-.1,3.81c-.04,1.5.71,3.76-.65,5.15-1.37,1.1-4.03,1.02-5.84,1.02h-5.87c-2.16,0-3.36-1.17-4.12-3.02l-1.44-3.51-1.45-3.49-8.48-19.72-2-4.77-3.3-7.1c-.09-.18-.55-.56-.72-.52-.23.05-.49.42-.64.71l-.08,13.97.04,6.69.02,3.8-.1,15.1c0,1.13-1.53,1.9-2.48,1.91l-5.34.06-5.87-.08c-.89-.01-1.92-.6-1.93-1.59l-.09-6.95.05-4.68v-16.59s.05-10.01.05-10.01l-.08-17.7-.09-20.39c0-1.59,1.23-2.94,2.74-2.95l7.86-.04c1.39,0,3.11-.13,4.37.39,1.4.58,1.95,2.34,2.5,3.61l3.34,7.73,3.95,9.23,7.94,18.53c.42.98.54,1.61,1.57,2.24.41-1.53.42-2.44.42-3.77v-7.29s0-8.45,0-8.45l-.1-5.84.02-14.25c0-1.28,1.7-2.08,2.84-2.09l10.57-.11c1.62-.02,2.56,1.26,2.54,2.76l-.08,8.74.09,7.49-.08,10.66v7.19s-.05,4.72-.05,4.72l.05,3.77.05,9.6-.04,9.33.02,6.7Z"/>
  <path class="cls-1" d="M509.36,106.43c-.23-.69-.38-1.11-.64-1.65l-4.03-11.39-2.87-7.43c-.28-.72-2.05-.64-2.76-.65-1.18-.02-2.15.55-2.13,1.78l.08,6.12-.04,11.95-.09,11.06c-.01,1.28-2.13,1.95-3.21,1.96l-11.55.09c-1.51.01-2.36-1.21-2.35-2.62l.04-14v-19.23s.03-4.08.03-4.08v-8.66s-.06-8.54-.06-8.54l.13-13.11-.36-6.73c-.07-1.25.38-3.28,1.68-3.72,2.52-.86,5.19-.12,7.77-.19l9.91-.25,10.62.28c1.7.05,3.27.57,4.85,1.04,3.67,1.08,6.55,3.01,9.11,5.86,5.01,5.59,5.39,13.74,4.8,21.19l-.73,4.31c-.67,3.98-2.51,7.73-5.78,10.27l-4.66,2.99c-.15,1.27.44,2.27.87,3.42l2.57,6.78,1.12,3.04,2.88,7.51,3.69,9.12,1.07,2.52c.2.47.15,1.68-.19,2.07-.37.42-1.39.87-2.08.85l-5.48-.22-4.48.11-2.54.05c-1.6.03-1.55-1.01-1.89-2.02l-3.3-9.88ZM510.76,68.91c1.4-3.63,1.32-7.19,1.11-11-.14-2.49-1.04-5.08-3.3-6.31-3.25-1.77-6.85-1.77-10.45-1.3-.66,1.01-1.12,2.11-1.12,3.29l-.04,12.21.04,6.4c.93.61,2.28.8,3.44.75,3.97-.16,8.8-.14,10.31-4.03Z"/>
  <path class="cls-1" d="M100.53,120.06c-6.03.4-10.66.16-16.02-1.97-4.19-1.66-7.53-4.39-9.88-8.25-1.53-2.52-2.63-6.53-2.76-9.52l-.2-4.5c-.28-6.3.04-11.85-.1-17.9-.03-1.2-.07-2.33.1-3.54v-9.76s-.02-5.82-.02-5.82c0-4.69.65-9.39,3.29-13.16.98-1.4,1.94-2.64,3.26-3.75,1.42-1.2,2.86-2.57,4.66-3.21,7.34-2.59,10.03-2.57,17.8-2.24,5.07.21,9.92,1.78,13.79,5.09,4.07,3.49,5.93,7.26,6.58,12.57l.37,3.01-.06,2.84.06,8.21-.03,13.07v13.13s-.17,5.52-.17,5.52c-.09,2.7-.61,5.02-1.71,7.43-2.61,5.74-7.12,9.62-13.16,11.42-1.87.56-3.65,1.17-5.8,1.31ZM88.81,99.09c.2,3.92,2.8,6.97,6.67,7.44,1.42.17,3.17-.36,4.54-.81,3.98-1.33,4.33-7.91,4.34-12.54l.08-33.49c0-1.65-.64-3.31-.98-4.84-.54-2.39-2.21-4.18-4.57-4.7-2.58-.57-5.75-.53-7.73,1.52-2.59,2.67-2.63,8.01-2.4,12.11.1,1.75-.1,3.49-.09,5.23l.06,10.48.05,6.44-.02,3.49c-.02,3.23-.12,6.33.05,9.68Z"/>
  <path class="cls-1" d="M169.41,37.86l11.85-.18c.57,0,1.52.45,1.84.81.39.44.48,1.54.48,2.24v10.55s.08,4.92.08,4.92v4.41c.03,3.5.16,6.94.08,10.47l-.14,6.11v9.03s-.04,7.31-.04,7.31l.11,3.75c.09,3.1-.29,5.83-1.24,8.77-.41,1.27-.81,2.52-1.63,3.63l-2.63,3.6c-2.28,1.76-4.6,3.7-7.42,4.73-10.74,3.92-25.22,3.25-32.77-5.43-3.29-3.79-4.59-8.32-4.67-13.24l-.19-11.95.11-14.57-.06-4.09.1-9.6.17-5.91c-.43-4.65-.38-9.05-.26-13.74.64-2.2,5.12-1.82,8.79-1.77l3.03.04,3.28.14c3.32.14,2.32,4.01,2.34,8.4l.05,10.14.04,4.45-.13,5.23.09,6.72.05,5.82v6.09s-.06,4.11-.06,4.11v4.97s.63,7.79.63,7.79c.11,1.33,1.51,2.7,2.41,3.62,1.64,1.67,7.23,1.86,9.55.08,2.1-1.62,2.84-4.28,2.9-6.82l.17-7.03v-6.4s-.03-3.49-.03-3.49l.07-5.25.02-10.8.03-15.72-.17-9.08c-.01-.76.33-1.9.79-2.3.66-.58,1.52-.53,2.39-.55Z"/>
  <path class="cls-1" d="M467.97,50.03l.06,13.44-.08,6.76.07,11.33v12.23s-.31,5.39-.31,5.39c-.25,4.44-1.74,9.52-4.72,12.87-1.65,1.85-3.39,3.53-5.71,4.52-2.57,1.1-5.15,2.2-7.9,2.76l-3.61.33c-2.96.27-8.01.13-10.45-.65l-4.44-1.42c-3.64-1.17-6.27-3.71-8.71-6.49-1.53-1.74-2.03-3.36-2.68-5.65l-1.33-4.73-.1-4,.09-4.39.07-14.27.02-4.12-.02-11.97-.11-22.1c0-1.17.48-2.34,1.86-2.36l13.22-.19c1.5-.02,2.27,1.24,2.25,2.52l-.13,13.14.06,7.87-.1,9-.02,6.2.29,16.27c.04,2.41-.36,4.68.09,7.05.48,2.52,1.83,5.16,4.27,6.22,2.04.88,4.59.53,6.68-.02,2.74-.72,4.51-3.15,4.46-5.95l.4-4.95-.06-21.87-.06-4.1.12-10.46-.13-6.42-.08-5.85-.05-5.82c-.01-1.59.85-2.73,2.48-2.76l6.24-.12h4.55c1.07,0,3-.13,3.27,1.5.59,3.66.24,7.41.26,11.26Z"/>
  <path class="cls-1" d="M297.14,115.43c-6.21,3.44-12.45,3.59-19.29,3.59h-2.14s-6.08.1-6.08.1l-8.64-.34c-1.4-.06-2.33-1.25-2.33-2.61l-.05-13.32v-2.68s.07-10.68.07-10.68l.02-13.42-.06-14.08-.04-20.68c0-1,.27-2.23.85-2.74.82-.72,1.83-.73,2.91-.73h17.5c7.94.01,13.41.43,19.99,5.38,3.44,2.59,5.38,6.41,6.28,10.61l1.24,5.82.15,4.68.17,9.69c-8.11,6.16-14.24,14.15-14.55,24.68-.01.4.3.9-.09,1.25-.26,5.46,1.09,10.73,4.11,15.46ZM283.18,105.29c1.97-.1,3.61-1.36,5.15-2.39.78-.53,1.13-.97,1.43-1.86.58-1.73.91-3.34.97-5.21l.16-4.95-.05-10.51.06-17.76c0-2.58-.24-5.31-1.5-7.56-1.17-2.1-4-3.15-6.31-3.22l-6.99-.2-.25,2.88-.05,8.97v19.51s-.15,8.09-.15,8.09l.24,6.49-.06,5.99c0,.43.09,1.1.25,1.41s1.02.63,1.37.61l5.71-.29Z"/>
  <path class="cls-1" d="M55.97,113.27c-6.23,6.56-15.45,6.95-24.23,5.71-2.81-.4-5.19-1.24-7.66-2.62-1.32-.74-2.55-1.4-3.64-2.49-1.46-1.47-2.98-2.86-4.03-4.73-2.25-4-2.17-9.86-2.6-14.47.72-1.87,1.94-2.42,3.68-2.48,4.68-.18,13.04-1.27,12.5,2.78-.31,2.37,0,4.6.74,6.84.99,3.05,3.7,4.74,6.89,4.83,2.21.06,4.35-.37,5.83-1.9,2.94-3.07,2.69-7.66-.06-11.14-1.19-1.5-2.44-2.76-3.91-3.97l-7.03-5.81c-4.94-4.08-9.33-7.43-13.48-12.43-3.7-4.46-4.42-10.18-4.31-15.72.08-3.79,1.13-6.87,3.06-10,1.23-2,2.39-3.65,4.3-5.06,2.65-1.96,5.47-3.01,8.77-3.52,7.23-1.11,13.12-.63,19.96,2.28,3.05,1.3,5.67,4,7.28,6.87,2.05,3.64,2.61,9.68,2.23,13.98-.13,1.43-1.82,2.08-3.07,2.12-3.69.11-6.81.83-10.05.66-1.74-.09-2.12-2.04-2.28-3.24l-.53-3.81c-.56-4.06-3.87-6.43-7.82-6.37-2.94.05-5.32,1.73-5.69,4.82-.21,1.77-.55,3.97.29,5.66,1.32,2.66,3.33,4.77,5.59,6.68l9.64,8.15c2.61,2.21,5.37,4.04,7.83,6.46,1.32,1.29,3.43,4.11,4.2,5.64l1.68,3.35c.83,1.66,1.25,3.86,1.45,5.78.37,3.48-.21,6.85-1.12,10.22-.72,2.7-2.52,4.94-4.41,6.92Z"/>
  <path class="cls-1" d="M569.24,81.29c-.83,1.98-1.45,3.77-1.43,5.8l.04,2.89.03,15.74-.04,9.95c0,.62-.22,1.71-.6,2.09s-1.33.63-2,.78l-12.56-.2-1.21-.48c-.32-.13-.08-1.15-.14-1.49-.21-1.15-.56-2.67-.54-3.94l.22-14.85.13-7.58c.03-1.79.05-3.6-.44-5.3l-.86-2.98-3.84-8.67-1.87-4.88-2.56-6.15-3.04-7.47c-.38-.93-.65-1.83-.66-2.71-.69-1.14-1.31-2.43-1.89-3.77l-2.34-5.45-1.06-3.13c-.12-.36-.07-1.31.13-1.63.24-.37,1.07-.75,1.59-.75l10.05-.03c1.12,0,3.12,0,3.99.7,1.65,1.34,1.92,3.63,2.38,5.42l2.53,6.55,1.55,4.61,2.8,7.42,1.01,2.73c.07.19.54.59.73.65.24.08.77-.38.87-.65l2.98-7.74,2.52-7.19,3.76-10.1c.78-2.1,3.08-2.4,4.79-2.38l3.56.05,5.87.08c.69,0,2.15.04,2.39.61.72,1.73-.21,3.05-.79,4.48l-2.35,5.82-2.77,6.86-1.27,3.1-2.49,5.94-1.45,3.57-5.71,13.68Z"/>
  <path class="cls-1" d="M389.8,112.99l.21,2.44c.13,1.53-.75,2.84-2.54,2.89l-3.52.09-9.25-.11c-1.04-.01-1.95-1.19-1.95-2.15v-7.75s-.02-6.8-.02-6.8l6.56-5.83c2.86-2.54,5.98-6.1,4.44-8.96-.44-.81-1.69-1.76-2.88-1.78l-8.08-.15c-.19-.74-.34-1.92-.17-2.73l17.33-21.99.21,9.68,13.74-.24c1.62-.03,3.12.98,3.17,2.7l.28,8.64c.03.79-.64,2.2-1.43,2.34-2.31.4-4.4.36-6.69.25l-7.51-.35c-.51-.02-1.52.05-1.82.48l.02,9.55.14,14.16-.23,5.62Z"/>
  <polygon class="cls-1" points="572.57 199.92 572.47 175.94 567.96 199.87 561.7 199.91 557.16 175.93 557.06 199.91 548.92 199.91 548.92 166.78 561.3 166.77 564.81 186.32 568.34 166.78 580.72 166.77 580.72 199.91 572.57 199.92"/>
  <polygon class="cls-1" points="214.69 199.89 205.19 199.92 199.42 179.69 199.35 199.92 191.26 199.91 191.26 166.78 200.94 166.77 206.5 186.88 206.59 166.78 214.69 166.77 214.69 199.89"/>
  <polygon class="cls-1" points="128.09 199.89 118.58 199.92 112.96 180.19 112.75 199.91 104.67 199.91 104.67 166.78 114.35 166.76 119.85 186.63 119.99 166.8 128.09 166.76 128.09 199.89"/>
  <polygon class="cls-1" points="452.71 199.89 443.22 199.93 437.52 179.96 437.41 199.91 429.27 199.91 429.27 166.77 438.98 166.78 444.55 186.88 444.63 166.78 452.71 166.78 452.71 199.89"/>
  <path class="cls-1" d="M327.54,199.88l-9.56.05c-1.49-4.42.23-11.2-1.77-12.74-1-.77-2.7-.55-3.99-.42v13.15s-8.73,0-8.73,0v-33.13s14.91.06,14.91.06c2.94.01,5.48,1.57,6.84,4.02,1.94,5.19,1.11,11.54-4.4,12.63,2.78.49,4.51,2.09,4.86,4.77l.25,7.85c.05,1.5.37,2.4,1.59,3.78ZM316.36,179.91c1.53-1.54,1.61-4.59.13-6.08-1.04-1.05-2.85-.78-4.26-.72v7.55c1.37.17,3.02.37,4.14-.76Z"/>
  <path class="cls-1" d="M408.01,196.56c.02,1.33.55,2.08,1.55,3.34h-9.6c-1.38-4.75.32-11.69-1.87-12.85-1.06-.56-2.6-.41-3.84-.29v13.16s-8.65,0-8.65,0v-33.15s14.78.06,14.78.06c2.95.01,5.49,1.54,6.91,4,1.99,5.21,1.05,11.68-4.37,12.61,1.32.46,2.66.77,3.46,1.72.99,1.18,1.53,2.96,1.55,4.51l.08,6.89ZM399.51,176.14c-.1-1.7-1.02-2.98-2.68-3.02l-2.6-.07v7.67c1.06.08,2.43.12,3.28-.23,1.78-.72,2.1-2.5,2-4.35Z"/>
  <path class="cls-1" d="M244.1,189.41c0,2.17-.7,4.07-1.49,5.95-1.47,2.6-4,4.47-7.16,4.49l-14.19.09v-33.16s13.74.05,13.74.05c3.77.01,6.79,2.24,8.12,5.67.48,1.57.99,3.19.99,4.85v12.07ZM235.08,176.15c-.08-1.07-.75-2.62-1.78-2.87-1.1-.27-2.22-.23-3.38-.19v20.56c1.35.04,2.71.16,3.87-.48,2.17-1.19,1.64-12.4,1.29-17.02Z"/>
  <path class="cls-1" d="M157.44,176.69c.46,6.01.91,15.6-2.25,19.93-1.71,2.01-3.95,3.26-6.69,3.26l-13.85.02v-33.13s13.87.06,13.87.06c3.38.02,6.16,1.86,7.6,4.77.63,1.65,1.18,3.32,1.31,5.09ZM148.56,176.85c-.06-1.03-.5-2.79-1.32-3.29-1.16-.71-2.66-.53-3.97-.45v20.54c1.3.04,2.48.1,3.69-.33,2.42-.86,1.86-11.79,1.59-16.47Z"/>
  <path class="cls-1" d="M538.5,198.99c-4.08,2.08-9.02,2.01-13.06.16-5.09-2.33-5.47-10.54-5.45-16.16.02-6.71.71-14.67,7.58-16.36,2.73-.67,5.56-.67,8.31-.05,6.89,1.53,7.76,9.41,7.79,16.12.03,5.48-.28,13.8-5.17,16.29ZM534.34,192.08c.56-5.87.54-11.73,0-17.46-.15-1.57-1.23-2.62-2.51-2.62s-2.38,1.05-2.53,2.61c-.54,5.83-.58,11.79.03,17.59.17,1.58,1.21,2.51,2.5,2.51s2.34-.91,2.51-2.63Z"/>
  <path class="cls-1" d="M297.35,189.25c-.15,5.73-2.02,10.13-7.63,10.94-2.45.36-4.78.36-7.22,0-5.57-.82-7.41-5.01-7.64-10.51v-22.92s8.67.01,8.67.01v25.21c.18,1.69,1.07,2.71,2.59,2.71s2.36-1.03,2.54-2.71v-25.21s8.69-.01,8.69-.01v22.49Z"/>
  <path class="cls-1" d="M98.48,189.68c-.27,5.49-2.07,9.63-7.5,10.5-2.53.4-4.98.4-7.5,0-5.47-.88-7.19-5.02-7.49-10.38v-23.02s8.62-.01,8.62-.01l.04,25.16c0,1.6,1.15,2.7,2.45,2.76,1.44.07,2.72-1.06,2.72-2.76l.04-25.16h8.62s0,22.91,0,22.91Z"/>
  <path class="cls-1" d="M65.69,198.93c-4.18,2.17-9.35,2.1-13.44.06-6.35-3.17-5.77-18.29-4.15-25.31.73-3.17,2.77-5.79,5.78-6.77,3.29-1.07,6.81-1.07,10.1,0,3.01.98,5.05,3.6,5.78,6.78,1.59,6.92,2.22,21.99-4.07,25.26ZM61.46,191.99c.54-5.91.59-11.79-.05-17.52-.18-1.57-1.29-2.54-2.6-2.48-1.18.05-2.2,1.01-2.36,2.48-.64,5.82-.61,11.8-.03,17.64.16,1.61,1.26,2.66,2.65,2.59,1.21-.06,2.25-1.07,2.4-2.71Z"/>
  <path class="cls-1" d="M177.27,194.16l-6.85-.03-.89,5.79h-9.09s7.94-33.13,7.94-33.13l10.9-.02,8.09,33.14h-9.25s-.84-5.75-.84-5.75ZM176.22,187.52l-2.41-13.56-2.38,13.6,4.79-.04Z"/>
  <path class="cls-1" d="M42.06,194c-1.67,6.79-11.32,7.53-17.53,5.56-3.99-1.27-5.17-5.32-4.96-9.5h8.39c.02,1.08.07,2.27.46,3.24.47,1.15,1.78,1.5,2.87,1.35s1.98-1.12,2.2-2.37c.32-1.8-.43-3.5-2.12-4.26l-5.22-2.35c-5.68-2.56-7.26-7.34-5.58-13.29,1.77-6.27,9.51-7.26,15.4-5.57,4.32,1.24,5.61,4.96,5.7,9.54h-8.12c-.02-1.35-.13-2.65-.86-3.61-.83-1.09-2.71-.94-3.52.05-1.49,1.82-.86,4.48,1.26,5.45l5.99,2.75c5.39,2.48,7.07,7.12,5.63,13.01Z"/>
  <path class="cls-1" d="M502.1,192.83c.2,1.36,1.24,1.86,2.32,1.87.96,0,2.04-.73,2.13-1.91l.46-6.22h8.34c.06,2.58.1,5.21-.69,7.63-1.94,5.97-7.67,6.75-13.59,6.04-8.16-.98-8.53-9.28-8.51-16.96.02-6.19.42-14.27,6.44-16.33,3.05-1.04,6.29-1.07,9.41-.37,3.45.77,5.91,3.48,6.46,6.96l.25,5.17h-8.36s-.22-4.72-.22-4.72c-.05-1.1-1-1.92-1.91-1.99-2.13-.17-2.99,2.08-3,4.55l-.04,12.86.5,3.41Z"/>
  <path class="cls-1" d="M373,186.98l-6.5.38v12.55s-8.67.02-8.67.02v-33.15s14.03.07,14.03.07c3.72.02,6.74,2.44,7.89,5.85,1.76,6.32.05,13.08-6.75,14.29ZM370.85,179.57c.9-1.7.81-4.09-.31-5.53-.93-1.19-2.6-1.08-4.04-.9v7.79c1.59.33,3.49.28,4.36-1.35Z"/>
  <polygon class="cls-1" points="269.34 179.49 269.35 186.29 259.05 186.3 259.05 199.92 250.38 199.91 250.38 166.78 270.07 166.77 270.07 173.88 259.05 173.89 259.06 179.49 269.34 179.49"/>
  <polygon class="cls-1" points="354.33 166.8 345.9 186.87 345.9 199.88 337.23 199.93 337.21 186.88 328.9 166.8 338.26 166.76 341.55 178.24 344.84 166.77 354.33 166.8"/>
  <polygon class="cls-1" points="472.31 199.9 463.62 199.92 463.62 174.17 457.26 174.13 457.25 166.77 478.78 166.77 478.81 174.1 472.31 174.17 472.31 199.9"/>
  <polygon class="cls-1" points="423.06 199.89 414.39 199.92 414.39 166.77 423.06 166.78 423.06 199.89"/>
  <polygon class="cls-1" points="309.47 151.71 304.1 151.73 300.93 140.64 300.81 151.73 296.25 151.73 296.25 133.07 301.67 133.01 304.8 144.02 304.89 133.05 309.47 133.04 309.47 151.71"/>
  <polygon class="cls-1" points="270.9 151.65 265.55 151.75 262.41 140.89 262.25 151.73 257.68 151.73 257.67 133.07 263.12 133.02 266.25 144.01 266.34 133.05 270.9 133.05 270.9 151.65"/>
  <polygon class="cls-1" points="477.81 151.65 472.47 151.75 469.33 140.93 469.2 151.73 464.59 151.73 464.58 133.07 470.03 133.02 473.16 144.01 473.24 133.05 477.8 133.05 477.81 151.65"/>
  <path class="cls-1" d="M245.73,149.71c.02.62.38,1.39.78,2.02h-5.4s-.34-5.51-.34-5.51c-.04-.6-.23-1.63-.69-1.81-.52-.2-1.62-.18-2.1-.02v7.32s-4.89.02-4.89.02v-18.7s8.24.03,8.24.03c1.77,0,3.32.92,4.09,2.42.87,3.02.63,5.8-2.21,7.02,1.26.39,2.37,1.38,2.41,2.69l.13,4.52ZM240.27,136.89c-.53-.25-1.48-.31-2.29-.32v4.34c.59.05,1.66-.02,2.15-.3,1.08-.61,1.02-3.3.13-3.73Z"/>
  <path class="cls-1" d="M178.29,151.72h-5.19s-.37-5.5-.37-5.5c-.03-.51-.14-1.45-.5-1.68-.45-.29-1.39-.32-2.24-.27l-.02,7.44-4.92.02v-18.7s8.26.03,8.26.03c3.03.01,4.76,2.48,4.51,5.34-.16,1.83-.65,3.41-2.7,4.04,1.36.52,2.36,1.24,2.42,2.54l.17,4.23c.03.74.17,1.3.59,2.51ZM172.23,136.9c-.54-.31-1.8-.36-2.28-.2l.06,4.28c.81-.05,1.69-.13,2.11-.36.98-.54,1.1-3.14.1-3.72Z"/>
  <path class="cls-1" d="M415.07,147.31c-.63,2.67-2.48,4.4-5.11,4.41l-7.57.02v-18.69s7.6,0,7.6,0c2.7,0,4.52,1.84,5.07,4.43.37,3.21.36,6.47,0,9.83ZM410.2,146.32v-7.85c-.01-.61-.44-1.47-.87-1.7-.5-.27-1.74-.24-2.06.06v11.07c.25.37,1.42.34,1.96.11.42-.18.98-1.08.98-1.69Z"/>
  <polygon class="cls-1" points="362.5 151.72 357.6 151.72 357.61 144.05 354.66 144.04 354.64 151.75 349.77 151.69 349.77 133.06 354.65 133.04 354.66 139.88 357.59 139.85 357.6 133.05 362.5 133.05 362.5 151.72"/>
  <path class="cls-1" d="M572.28,151.66l-5.53.1-2.81-6.39c-.35.32-1.03,1.22-1.03,1.71l-.02,4.65h-4.91s0-18.66,0-18.66l4.9-.03.09,6.97,3.54-6.95,5.2.02-4.65,8.1,5.22,10.49Z"/>
  <path class="cls-1" d="M428.74,151.12c-2.4,1.26-5.33,1.19-7.64.05-3.41-1.67-3.31-9.81-2.33-14.19.5-2.25,2.08-3.86,4.36-4.18,3.67-.52,6.94.37,7.81,3.92,1.06,4.31,1.2,12.62-2.19,14.4ZM426.3,137.3c-.07-.78-.92-1.38-1.53-1.31-.46.06-1.28.75-1.29,1.31l-.02,10.03c0,.83.84,1.48,1.56,1.43,2.05-.13,1.61-7.6,1.27-11.47Z"/>
  <path class="cls-1" d="M43.43,151.81c-3.94.64-7.35-.2-8.2-4.06-.79-3.57-.78-7.28.02-10.84.92-4.12,5.46-5.04,9.09-3.75,1.74.62,2.87,2.26,3.21,4.07.68,3.53.71,7.16-.1,10.63-.48,2.09-1.91,3.61-4.02,3.95ZM42.77,137.37c-.06-.73-.89-1.41-1.51-1.39s-1.31.77-1.36,1.55c-.24,3.36-.25,6.51.03,9.86.07.82.93,1.44,1.63,1.38,1.94-.17,1.52-7.47,1.2-11.4Z"/>
  <path class="cls-1" d="M539.29,133.04l-.07,13.78c0,1.59-.86,3.64-2.29,4.35-2.32,1.15-5.31,1.17-7.67.14-1.72-.75-2.61-2.92-2.62-4.76l-.08-13.49,4.94-.02v14.28c.02.84.8,1.48,1.51,1.43s1.37-.78,1.37-1.6v-14.1s4.91-.02,4.91-.02Z"/>
  <path class="cls-1" d="M319.36,144.83l.02-3.23,6.29-.03v10.15s-3.17.02-3.17.02l-.31-1.31c-1.14,1.44-2.53,1.52-4.11,1.58-2.45.09-4.5-1.29-4.89-3.86-.51-3.36-.51-6.9-.05-10.28s3.11-5.29,6.44-5.22c1.72.04,3.45.37,4.58,1.58s1.58,2.95,1.52,4.74h-4.61s-.48-2.48-.48-2.48c-.08-.41-1.32-.6-1.68-.4-1.46.81-1.14,7.74-.83,11.3.03.41.51,1.05.82,1.25.36.23,1.59-.03,1.73-.47.29-.87.48-2.32.51-3.25l-1.77-.09Z"/>
  <path class="cls-1" d="M374.25,148.46h-3.83s-.55,3.26-.55,3.26h-5.12s4.47-18.65,4.47-18.65l6.16-.05,4.55,18.7h-5.23s-.46-3.27-.46-3.27ZM373.67,144.66l-1.41-7.27-1.3,7.43,2.71-.15Z"/>
  <path class="cls-1" d="M111.34,148.45h-3.83s-.51,3.28-.51,3.28h-5.14s4.47-18.65,4.47-18.65l6.16-.05,4.56,18.67-5.22.06-.47-3.3ZM110.77,144.67l-1.33-7.04-1.36,7.18,2.69-.14Z"/>
  <path class="cls-1" d="M157.18,148.45h-3.84s-.51,3.28-.51,3.28h-5.14s4.47-18.69,4.47-18.69h6.15s4.56,18.65,4.56,18.65l-5.23.07-.47-3.3ZM156.62,144.65l-1.35-7.22-1.35,7.37,2.7-.16Z"/>
  <path class="cls-1" d="M74.64,148.44l-3.84.03-.47,3.26-5.16-.04,4.47-18.65,6.16.03,4.53,18.62-5.21.05-.49-3.3ZM74.08,144.76l-1.33-7.45-1.38,7.47,2.71-.02Z"/>
  <path class="cls-1" d="M523.72,146.9c-.17,2.35-1.32,4.15-3.62,4.72-2.05.51-4.45.57-6.49-.11-2.29-.76-3.06-3.16-2.74-5.36l4.66.04c.06.9.18,1.79.52,2.16.39.44,1.5.45,1.96.14.48-.32.87-1.54.53-2.23-.62-1.25-2.16-1.86-3.44-2.29-2.82-.95-4.36-3.21-4.05-6.14.2-1.87.87-3.72,2.78-4.5,2.24-.92,5.07-.97,7.24.22,1.77.97,2.26,3.16,2.08,4.92l-4.48-.03c-.03-.82-.24-1.95-.73-2.23-.8-.45-1.78.05-2,.64-.26.69-.11,2.04.62,2.38l3.73,1.79c2.38,1.14,3.64,3.17,3.45,5.87Z"/>
  <path class="cls-1" d="M458.05,151.57c-2.31.62-4.88.65-7.02-.21-2.01-.81-2.61-2.96-2.39-5.18h4.68c.11.9.19,1.54.42,2.04.21.47,1.48.68,2.02.32.44-.3.77-1.29.72-1.79s-.62-1.44-1.14-1.68l-3.63-1.67c-2.22-1.02-3.05-3.25-2.88-5.56.2-2.62,1.68-4.64,4.39-5.01,1.86-.25,4.04-.24,5.67.73s2.17,2.9,2.1,4.9h-4.52c-.05-.85-.23-1.93-.7-2.23-.84-.54-1.84.03-2.09.76-.73,2.13,1.86,2.99,4.22,3.97,2.6,1.07,3.87,3.31,3.63,6.02-.18,2.06-1.16,3.98-3.47,4.6Z"/>
  <polygon class="cls-1" points="192.17 144.02 186.37 144.04 186.37 147.72 192.78 147.72 192.75 151.72 181.48 151.74 181.47 133.05 192.56 133.04 192.57 137.03 186.38 137.04 186.35 140.2 192.15 140.22 192.17 144.02"/>
  <path class="cls-1" d="M58.36,148.11l.41-3.9,4.72-.02c.22,3.17-.55,6.66-3.52,7.45-3.85,1.01-8.12.22-8.87-3.71-.68-3.61-.68-7.32,0-10.9.51-2.64,2.49-4.17,5.08-4.32,1.96-.11,4.09-.03,5.58,1.38s1.68,3.41,1.52,5.66l-4.63.02c-.03-.97-.15-2.48-.38-3.29-.1-.36-1.16-.59-1.48-.43-.37.18-.92.87-.95,1.37-.24,3.55-.58,9.84.71,11.16.3.3,1.74.05,1.8-.48Z"/>
  <path class="cls-1" d="M549.98,148.12l.39-3.87,4.63-.05c.2,2.38.03,4.81-1.69,6.46-1.55,1.48-3.9,1.39-5.92,1.27-2.39-.15-4.19-1.48-4.67-3.9-.73-3.63-.74-7.48,0-11.11.53-2.53,2.45-4.02,4.94-4.19,2.05-.14,4.24-.06,5.75,1.44s1.64,3.51,1.46,5.59h-4.66s-.12-2.64-.12-2.64c-.02-.49-.8-1.15-1.34-1.15-.46,0-1.24.69-1.29,1.28-.31,3.57-.68,10.27.79,11.41.34.26,1.67-.08,1.71-.54Z"/>
  <path class="cls-1" d="M413.92,49.34c-.02,1.09-1.45,1.92-2.49,1.89l-14.16-.45,7.87-10.23,1.99-3.3,5.32.09,1.68,2.26-.22,9.75Z"/>
  <path class="cls-1" d="M227.26,144.04c-1.52.66-3.24.6-4.91.57v7.12s-4.9,0-4.9,0v-18.67s7.52-.02,7.52-.02c3.06,0,5.2,2.33,5.16,5.38.17,2.24-.55,4.62-2.87,5.62ZM224.3,136.83c-.48-.18-1.35-.24-1.94-.25v4.34c.31.18,1.48.15,1.96-.09,1.12-.56.97-3.63-.02-4Z"/>
  <polygon class="cls-1" points="445.39 144.02 439.59 144.04 439.57 147.72 445.98 147.72 445.97 151.73 434.7 151.73 434.69 133.04 445.76 133.03 445.8 137.02 439.59 137.05 439.56 140.2 445.35 140.21 445.39 144.02"/>
  <path class="cls-1" d="M130.13,143.2c-1.77,1.58-4.07,1.44-6.2,1.41v7.12s-4.89,0-4.89,0v-18.68s7.58,0,7.58,0c2.8,0,4.83,2.01,5.05,4.73.16,1.9.01,4.03-1.55,5.42ZM125.9,136.87c-.49-.3-1.63-.36-1.97-.11v4.14c.31.25,1.51.19,1.98-.11,1.04-.66,1.03-3.29,0-3.91Z"/>
  <path class="cls-1" d="M145.43,143.32c-1.72,1.39-3.81,1.37-6.04,1.24l-.03,7.15-4.86.02v-18.69s7.6,0,7.6,0c2.89,0,5,2.19,5.02,5.05.16,1.86-.1,3.95-1.68,5.23ZM141.36,136.87c-.49-.32-1.66-.36-2-.1v4.11c.32.26,1.55.21,2-.1,1.03-.7,1-3.25,0-3.91Z"/>
  <polygon class="cls-1" points="281.9 151.72 277.04 151.73 277.02 137.22 273.41 137.2 273.43 133.04 285.58 133.04 285.56 137.22 281.9 137.22 281.9 151.72"/>
  <polygon class="cls-1" points="497.03 151.72 492.15 151.73 492.13 137.23 488.51 137.19 488.52 133.04 500.68 133.04 500.69 137.21 497.03 137.22 497.03 151.72"/>
  <polygon class="cls-1" points="388.04 151.72 383.15 151.73 383.15 137.22 379.55 137.19 379.55 133.04 391.67 133.04 391.67 137.2 388.04 137.22 388.04 151.72"/>
  <polygon class="cls-1" points="32.59 147.72 32.59 151.74 21.7 151.72 21.71 133.04 26.6 133.05 26.6 147.72 32.59 147.72"/>
  <polygon class="cls-1" points="206.81 147.72 206.81 151.74 195.93 151.72 195.93 133.04 200.82 133.05 200.82 147.72 206.81 147.72"/>
  <polygon class="cls-1" points="93.37 147.74 93.37 151.73 82.54 151.73 82.54 133.08 87.41 133.03 87.42 147.67 93.37 147.74"/>
  <polygon class="cls-1" points="254.18 151.72 249.3 151.71 249.3 133.06 254.17 133.06 254.18 151.72"/>
  <polygon class="cls-1" points="292.75 151.7 287.86 151.74 287.85 133.07 292.75 133.05 292.75 151.7"/>
  <polygon class="cls-1" points="486.87 199.85 479.07 199.94 479.05 190.72 486.83 190.7 486.87 199.85"/>
  <path class="cls-1" d="M481.56,142.8l-.03-2.26c1.49-.15,1.87-1.46,1.59-2.47h-1.61s0-5.03,0-5.03h4.46s-.09,5.91-.09,5.91c-.04,2.31-1.73,4.01-4.31,3.84Z"/>
  <polygon class="cls-1" points="578.61 151.73 574.16 151.73 574.13 146.57 578.61 146.52 578.61 151.73"/>
</svg>