<?xml version="1.0" encoding="UTF-8"?>
<svg id="Layer_1" data-name="Layer 1" xmlns="http://www.w3.org/2000/svg" viewBox="0 0 600 229.06">
  <defs>
    <style>
      .cls-1 {
        fill: #fff;
      }
    </style>
  </defs>
  <rect width="600" height="229.06"/>
  <path class="cls-1" d="M246.21,137.94l-.1,3.81c-.04,1.5.71,3.76-.65,5.15-1.37,1.1-4.03,1.02-5.84,1.02h-5.87c-2.16,0-3.36-1.17-4.12-3.02l-1.44-3.51-1.45-3.49-8.48-19.72-2-4.77-3.3-7.1c-.09-.18-.55-.56-.72-.52-.23.05-.49.42-.64.71l-.08,13.97.04,6.69.02,3.8-.1,15.1c0,1.13-1.53,1.9-2.48,1.91l-5.34.06-5.87-.08c-.89-.01-1.92-.6-1.93-1.59l-.09-6.95.05-4.68v-16.59s.05-10.01.05-10.01l-.08-17.7-.09-20.39c0-1.59,1.23-2.94,2.74-2.95l7.86-.04c1.39,0,3.11-.13,4.37.39,1.4.58,1.95,2.34,2.5,3.61l3.34,7.73,3.95,9.23,7.94,18.53c.42.98.54,1.61,1.57,2.24.41-1.53.42-2.44.42-3.77v-7.29s0-8.45,0-8.45l-.1-5.84.02-14.25c0-1.28,1.7-2.08,2.84-2.09l10.57-.11c1.62-.02,2.56,1.26,2.54,2.76l-.08,8.74.09,7.49-.08,10.66v7.19s-.05,4.72-.05,4.72l.05,3.77.05,9.6-.04,9.33.02,6.7Z"/>
  <path class="cls-1" d="M509.36,135.71c-.23-.69-.38-1.11-.64-1.65l-4.03-11.39-2.87-7.43c-.28-.72-2.05-.64-2.76-.65-1.18-.02-2.15.55-2.13,1.78l.08,6.12-.04,11.95-.09,11.06c-.01,1.28-2.13,1.95-3.21,1.96l-11.55.09c-1.51.01-2.36-1.21-2.35-2.62l.04-14v-19.23s.03-4.08.03-4.08v-8.66s-.06-8.54-.06-8.54l.13-13.11-.36-6.73c-.07-1.25.38-3.28,1.68-3.72,2.52-.86,5.19-.12,7.77-.19l9.91-.25,10.62.28c1.7.05,3.27.57,4.85,1.04,3.67,1.08,6.55,3.01,9.11,5.86,5.01,5.59,5.39,13.74,4.8,21.19l-.73,4.31c-.67,3.98-2.51,7.73-5.78,10.27l-4.66,2.99c-.15,1.27.44,2.27.87,3.42l2.57,6.78,1.12,3.04,2.88,7.51,3.69,9.12,1.07,2.52c.2.47.15,1.68-.19,2.07-.37.42-1.39.87-2.08.85l-5.48-.22-4.48.11-2.54.05c-1.6.03-1.55-1.01-1.89-2.02l-3.3-9.88ZM510.76,98.2c1.4-3.63,1.32-7.19,1.11-11-.14-2.49-1.04-5.08-3.3-6.31-3.25-1.77-6.85-1.77-10.45-1.3-.66,1.01-1.12,2.11-1.12,3.29l-.04,12.21.04,6.4c.93.61,2.28.8,3.44.75,3.97-.16,8.8-.14,10.31-4.03Z"/>
  <path class="cls-1" d="M100.53,149.35c-6.03.4-10.66.16-16.02-1.97-4.19-1.66-7.53-4.39-9.88-8.25-1.53-2.52-2.63-6.53-2.76-9.52l-.2-4.5c-.28-6.3.04-11.85-.1-17.9-.03-1.2-.07-2.33.1-3.54v-9.76s-.02-5.82-.02-5.82c0-4.69.65-9.39,3.29-13.16.98-1.4,1.94-2.64,3.26-3.75,1.42-1.2,2.86-2.57,4.66-3.21,7.34-2.59,10.03-2.57,17.8-2.24,5.07.21,9.92,1.78,13.79,5.09,4.07,3.49,5.93,7.26,6.58,12.57l.37,3.01-.06,2.84.06,8.21-.03,13.07v13.13s-.17,5.52-.17,5.52c-.09,2.7-.61,5.02-1.71,7.43-2.61,5.74-7.12,9.62-13.16,11.42-1.87.56-3.65,1.17-5.8,1.31ZM88.81,128.38c.2,3.92,2.8,6.97,6.67,7.44,1.42.17,3.17-.36,4.54-.81,3.98-1.33,4.33-7.91,4.34-12.54l.08-33.49c0-1.65-.64-3.31-.98-4.84-.54-2.39-2.21-4.18-4.57-4.7-2.58-.57-5.75-.53-7.73,1.52-2.59,2.67-2.63,8.01-2.4,12.11.1,1.75-.1,3.49-.09,5.23l.06,10.48.05,6.44-.02,3.49c-.02,3.23-.12,6.33.05,9.68Z"/>
  <path class="cls-1" d="M169.41,67.14l11.85-.18c.57,0,1.52.45,1.84.81.39.44.48,1.54.48,2.24v10.55s.08,4.92.08,4.92v4.41c.03,3.5.16,6.94.08,10.47l-.14,6.11v9.03s-.04,7.31-.04,7.31l.11,3.75c.09,3.1-.29,5.83-1.24,8.77-.41,1.27-.81,2.52-1.63,3.63l-2.63,3.6c-2.28,1.76-4.6,3.7-7.42,4.73-10.74,3.92-25.22,3.25-32.77-5.43-3.29-3.79-4.59-8.32-4.67-13.24l-.19-11.95.11-14.57-.06-4.09.1-9.6.17-5.91c-.43-4.65-.38-9.05-.26-13.74.64-2.2,5.12-1.82,8.79-1.77l3.03.04,3.28.14c3.32.14,2.32,4.01,2.34,8.4l.05,10.14.04,4.45-.13,5.23.09,6.72.05,5.82v6.09s-.06,4.11-.06,4.11v4.97s.63,7.79.63,7.79c.11,1.33,1.51,2.7,2.41,3.62,1.64,1.67,7.23,1.86,9.55.08,2.1-1.62,2.84-4.28,2.9-6.82l.17-7.03v-6.4s-.03-3.49-.03-3.49l.07-5.25.02-10.8.03-15.72-.17-9.08c-.01-.76.33-1.9.79-2.3.66-.58,1.52-.53,2.39-.55Z"/>
  <path class="cls-1" d="M467.97,79.32l.06,13.44-.08,6.76.07,11.33v12.23s-.31,5.39-.31,5.39c-.25,4.44-1.74,9.52-4.72,12.87-1.65,1.85-3.39,3.53-5.71,4.52-2.57,1.1-5.15,2.2-7.9,2.76l-3.61.33c-2.96.27-8.01.13-10.45-.65l-4.44-1.42c-3.64-1.17-6.27-3.71-8.71-6.49-1.53-1.74-2.03-3.36-2.68-5.65l-1.33-4.73-.1-4,.09-4.39.07-14.27.02-4.12-.02-11.97-.11-22.1c0-1.17.48-2.34,1.86-2.36l13.22-.19c1.5-.02,2.27,1.24,2.25,2.52l-.13,13.14.06,7.87-.1,9-.02,6.2.29,16.27c.04,2.41-.36,4.68.09,7.05.48,2.52,1.83,5.16,4.27,6.22,2.04.88,4.59.53,6.68-.02,2.74-.72,4.51-3.15,4.46-5.95l.4-4.95-.06-21.87-.06-4.1.12-10.46-.13-6.42-.08-5.85-.05-5.82c-.01-1.59.85-2.73,2.48-2.76l6.24-.12h4.55c1.07,0,3-.13,3.27,1.5.59,3.66.24,7.41.26,11.26Z"/>
  <path class="cls-1" d="M297.14,144.71c-6.21,3.44-12.45,3.59-19.29,3.59h-2.14s-6.08.1-6.08.1l-8.64-.34c-1.4-.06-2.33-1.25-2.33-2.61l-.05-13.32v-2.68s.07-10.68.07-10.68l.02-13.42-.06-14.08-.04-20.68c0-1,.27-2.23.85-2.74.82-.72,1.83-.73,2.91-.73h17.5c7.94.01,13.41.43,19.99,5.38,3.44,2.59,5.38,6.41,6.28,10.61l1.24,5.82.15,4.68.17,9.69c-8.11,6.16-14.24,14.15-14.55,24.68-.01.4.3.9-.09,1.25-.26,5.46,1.09,10.73,4.11,15.46ZM283.18,134.57c1.97-.1,3.61-1.36,5.15-2.39.78-.53,1.13-.97,1.43-1.86.58-1.73.91-3.34.97-5.21l.16-4.95-.05-10.51.06-17.76c0-2.58-.24-5.31-1.5-7.56-1.17-2.1-4-3.15-6.31-3.22l-6.99-.2-.25,2.88-.05,8.97v19.51s-.15,8.09-.15,8.09l.24,6.49-.06,5.99c0,.43.09,1.1.25,1.41s1.02.63,1.37.61l5.71-.29Z"/>
  <path class="cls-1" d="M55.97,142.56c-6.23,6.56-15.45,6.95-24.23,5.71-2.81-.4-5.19-1.24-7.66-2.62-1.32-.74-2.55-1.4-3.64-2.49-1.46-1.47-2.98-2.86-4.03-4.73-2.25-4-2.17-9.86-2.6-14.47.72-1.87,1.94-2.42,3.68-2.48,4.68-.18,13.04-1.27,12.5,2.78-.31,2.37,0,4.6.74,6.84.99,3.05,3.7,4.74,6.89,4.83,2.21.06,4.35-.37,5.83-1.9,2.94-3.07,2.69-7.66-.06-11.14-1.19-1.5-2.44-2.76-3.91-3.97l-7.03-5.81c-4.94-4.08-9.33-7.43-13.48-12.43-3.7-4.46-4.42-10.18-4.31-15.72.08-3.79,1.13-6.87,3.06-10,1.23-2,2.39-3.65,4.3-5.06,2.65-1.96,5.47-3.01,8.77-3.52,7.23-1.11,13.12-.63,19.96,2.28,3.05,1.3,5.67,4,7.28,6.87,2.05,3.64,2.61,9.68,2.23,13.98-.13,1.43-1.82,2.08-3.07,2.12-3.69.11-6.81.83-10.05.66-1.74-.09-2.12-2.04-2.28-3.24l-.53-3.81c-.56-4.06-3.87-6.43-7.82-6.37-2.94.05-5.32,1.73-5.69,4.82-.21,1.77-.55,3.97.29,5.66,1.32,2.66,3.33,4.77,5.59,6.68l9.64,8.15c2.61,2.21,5.37,4.04,7.83,6.46,1.32,1.29,3.43,4.11,4.2,5.64l1.68,3.35c.83,1.66,1.25,3.86,1.45,5.78.37,3.48-.21,6.85-1.12,10.22-.72,2.7-2.52,4.94-4.41,6.92Z"/>
  <path class="cls-1" d="M569.24,110.58c-.83,1.98-1.45,3.77-1.43,5.8l.04,2.89.03,15.74-.04,9.95c0,.62-.22,1.71-.6,2.09s-1.33.63-2,.78l-12.56-.2-1.21-.48c-.32-.13-.08-1.15-.14-1.49-.21-1.15-.56-2.67-.54-3.94l.22-14.85.13-7.58c.03-1.79.05-3.6-.44-5.3l-.86-2.98-3.84-8.67-1.87-4.88-2.56-6.15-3.04-7.47c-.38-.93-.65-1.83-.66-2.71-.69-1.14-1.31-2.43-1.89-3.77l-2.34-5.45-1.06-3.13c-.12-.36-.07-1.31.13-1.63.24-.37,1.07-.75,1.59-.75l10.05-.03c1.12,0,3.12,0,3.99.7,1.65,1.34,1.92,3.63,2.38,5.42l2.53,6.55,1.55,4.61,2.8,7.42,1.01,2.73c.07.19.54.59.73.65.24.08.77-.38.87-.65l2.98-7.74,2.52-7.19,3.76-10.1c.78-2.1,3.08-2.4,4.79-2.38l3.56.05,5.87.08c.69,0,2.15.04,2.39.61.72,1.73-.21,3.05-.79,4.48l-2.35,5.82-2.77,6.86-1.27,3.1-2.49,5.94-1.45,3.57-5.71,13.68Z"/>
  <path class="cls-1" d="M389.8,142.27l.21,2.44c.13,1.53-.75,2.84-2.54,2.89l-3.52.09-9.25-.11c-1.04-.01-1.95-1.19-1.95-2.15v-7.75s-.02-6.8-.02-6.8l6.56-5.83c2.86-2.54,5.98-6.1,4.44-8.96-.44-.81-1.69-1.76-2.88-1.78l-8.08-.15c-.19-.74-.34-1.92-.17-2.73l17.33-21.99.21,9.68,13.74-.24c1.62-.03,3.12.98,3.17,2.7l.28,8.64c.03.79-.64,2.2-1.43,2.34-2.31.4-4.4.36-6.69.25l-7.51-.35c-.51-.02-1.52.05-1.82.48l.02,9.55.14,14.16-.23,5.62Z"/>
  <path class="cls-1" d="M413.92,78.62c-.02,1.09-1.45,1.92-2.49,1.89l-14.16-.45,7.87-10.23,1.99-3.3,5.32.09,1.68,2.26-.22,9.75Z"/>
  <path class="cls-1" d="M404.35,66.44l-17.7-.22-14.66-.04-12.25,23.33-21.77,42.12c4.22.92,8.23.47,12.6.34-.29,1.7-1.33,2.63-2.35,3.74-4.23,4.59-9.46,7.89-15.68,9.09-6.4,1.24-13.05-.5-17.68-5.11-4.28-4.26-5.77-10.35-4.56-16.21,1.21-5.86,4.86-10.68,10.47-13.17,2.3,2.58,4.08,5.33,5.93,8.2,2.34,3.66,4.51,7.05,7.87,10.45l8.73-12.75-7.15-10.85,8.75-7.96c2.93-2.67,4.97-6.03,6.3-9.7,2.29-6.32.4-12.73-4.61-17.1-3.72-3.24-8.27-4.86-13.1-5.46h-4.01c-4.48.53-8.62,2.07-12.23,4.9-10.33,8.1-9,21.01-2.44,31.8-11.49,6.83-19.92,15.69-19.1,29.61.17.48.03.62.11,1.2l.56,4.14c.01.09-.43.37-.48.44-.06.07,0,.33.09.3l.65-.17c1,3.51,2.87,6.55,5.38,9.29,9.45,10.29,23.52,10.57,36.72,5.95l-6.58,15.63,10.43-9.51,4.93-5.11,23.9-25.02c3.09-3.24,10.88-8.45,9.83-11.62l-16.39-.04,29.23-37.11,10.26-13.39ZM323.76,79.28c1.16-4.76,5.3-7.45,10.09-6.66,2.95.49,5.62,1.99,6.85,4.82,1.44,3.3,1.02,6.94-.7,10.1-2,3.69-4.31,6.96-7.04,10.32-.44.54-1.2,1.05-1.64,1.29l-5.52-8.55c-2.2-3.41-2.98-7.48-2.04-11.32Z"/>
</svg>