<svg xmlns="http://www.w3.org/2000/svg" viewBox="0 0 1200 750" font-family="Impact, 'Arial Narrow', Haettenschweiler, sans-serif">
  <defs>
    <linearGradient id="bg" x1="0" y1="0" x2="0" y2="1"><stop offset="0" stop-color="#1b1c20"/><stop offset="1" stop-color="#0b0b0c"/></linearGradient>
    <filter id="grain"><feTurbulence type="fractalNoise" baseFrequency="0.9" numOctaves="2" stitchTiles="stitch"/><feColorMatrix type="saturate" values="0"/></filter>
  </defs>
  <rect width="1200" height="750" fill="url(#bg)"/>
  <rect width="1200" height="750" filter="url(#grain)" opacity="0.06"/>
  <rect x="26" y="26" width="1148" height="698" fill="none" stroke="#ffffff" stroke-opacity="0.14" stroke-width="2"/>
  <path d="M59 12 L28 57 H47 L41 88 L74 41 H55 Z" transform="translate(1052,58) scale(0.85)" fill="#808184" opacity="0.5"/>
  <text x="600" y="158" text-anchor="middle" fill="#808184" font-size="32" letter-spacing="9">STEP BY STEP</text>
  <text x="600" y="330" text-anchor="middle" fill="#f4f1ea" font-size="150">HOW TO ORDER</text>
  <text x="600" y="460" text-anchor="middle" fill="#f4f1ea" font-size="92">CUSTOM SHIRTS</text>
  <g transform="translate(0,585)" fill="none" stroke="#808184" stroke-width="3.5">
    <line x1="360" y1="0" x2="840" y2="0" stroke-dasharray="2 22" stroke-linecap="round"/>
    <g fill="#0b0b0c" stroke="#a9aaac"><circle cx="360" cy="0" r="30"/><circle cx="480" cy="0" r="30"/><circle cx="600" cy="0" r="30"/><circle cx="720" cy="0" r="30"/><circle cx="840" cy="0" r="30"/></g>
  </g>
  <g fill="#f4f1ea" font-size="34" text-anchor="middle"><text x="360" y="597">1</text><text x="480" y="597">2</text><text x="600" y="597">3</text><text x="720" y="597">4</text><text x="840" y="597">5</text></g>
</svg>
