<svg xmlns="http://www.w3.org/2000/svg" viewBox="0 0 1200 750" font-family="Impact, 'Arial Narrow', Haettenschweiler, sans-serif">
  <defs>
    <linearGradient id="bg" x1="0" y1="0" x2="0" y2="1"><stop offset="0" stop-color="#1b1c20"/><stop offset="1" stop-color="#0b0b0c"/></linearGradient>
    <filter id="grain"><feTurbulence type="fractalNoise" baseFrequency="0.9" numOctaves="2" stitchTiles="stitch"/><feColorMatrix type="saturate" values="0"/></filter>
  </defs>
  <rect width="1200" height="750" fill="url(#bg)"/>
  <rect width="1200" height="750" filter="url(#grain)" opacity="0.06"/>
  <rect x="26" y="26" width="1148" height="698" fill="none" stroke="#ffffff" stroke-opacity="0.14" stroke-width="2"/>
  <path d="M59 12 L28 57 H47 L41 88 L74 41 H55 Z" transform="translate(1052,58) scale(0.85)" fill="#808184" opacity="0.5"/>
  <g transform="translate(600,250)" fill="none" stroke="#a9aaac" stroke-width="9" stroke-linecap="round" stroke-linejoin="round">
    <path d="M0 -78 C-46 -78 -78 -44 -78 -2 C-78 48 -22 96 0 118 C22 96 78 48 78 -2 C78 -44 46 -78 0 -78 Z"/>
    <circle cx="0" cy="-6" r="28"/>
  </g>
  <text x="600" y="500" text-anchor="middle" fill="#808184" font-size="32" letter-spacing="9">CUSTOM TEES NEAR YOU</text>
  <text x="600" y="618" text-anchor="middle" fill="#f4f1ea" font-size="116">WARRENVILLE, IL</text>
  <text x="600" y="680" text-anchor="middle" fill="#a9aaac" font-size="29" letter-spacing="3">NAPERVILLE · WHEATON · AURORA · CHICAGOLAND</text>
</svg>
